<svg xmlns="http://www.w3.org/2000/svg" width="1000" height="800"><rect width="1000" height="800" x="0" y="0" fill="#FFFFFF" id="backgorund"/><g transform="translate(20,20)" id="viz"><g><rect x="0" y="0" height="6.552432218740049" width="2" fill="black"><title>Coal reserves: 63.96</title></rect><rect x="191.6" y="371.1322285052424" height="9.767180858891152" width="2" fill="black"><title>Coal: 95.34</title></rect><rect x="0" y="23.145596230513092" height="3.213724182330715" width="2" fill="black"><title>Coal imports: 31.37</title></rect><rect x="0" y="562.5509688083567" height="11.033410724801456" width="2" fill="black"><title>Oil reserves: 107.7</title></rect><rect x="191.6" y="429.14216579571104" height="90.16048385035566" width="2" fill="black"><title>Oil: 880.08</title></rect><rect x="0" y="444.64710133379333" height="79.12604866773358" width="2" fill="black"><title>Oil imports: 772.37</title></rect><rect x="0" y="347.061243721201" height="8.424116656457045" width="2" fill="black"><title>Gas reserves: 82.23</title></rect><rect x="191.6" y="139.01215781013437" height="216.83161995894673" width="2" fill="black"><title>Natural Gas: 2116.55</title></rect><rect x="0" y="122.06057640693862" height="208.4075033024893" width="2" fill="black"><title>Gas imports: 2034.32</title></rect><rect x="0" y="426.2447448113425" height="1.8091925106777467" width="2" fill="black"><title>UK land based bioenergy: 17.66</title></rect><rect x="191.6" y="357.1153550451838" height="9.775376521453609" width="2" fill="black"><title>Bio-conversion: 95.42000000000002</title></rect><rect x="0" y="405.8180596359477" height="3.8335211636218105" width="2" fill="black"><title>Agricultural 'waste': 37.42</title></rect><rect x="0" y="540.3663140132999" height="5.591490783283689" width="2" fill="black"><title>Other waste: 54.580000000000005</title></rect><rect x="383.2" y="514.432631436801" height="14.318846954554488" width="2" fill="black"><title>Solid: 139.77</title></rect><rect x="383.2" y="545.3446424031285" height="90.95341420327986" width="2" fill="black"><title>Liquid: 887.82</title></rect><rect x="383.2" y="146.35110892613298" height="220.8874484695768" width="2" fill="black"><title>Gas: 2156.1400000000003</title></rect><rect x="958" y="438.77905665150826" height="69.25334865335009" width="2" fill="black"><title>Losses: 676</title></rect><rect x="574.8" y="144.71797687757865" height="121.46074363446488" width="2" fill="black"><title>Thermal generation: 1185.6100000000001</title></rect><rect x="766.4" y="364.18635942552544" height="1.653474921989698" width="2" fill="black"><title>District heating: 16.14</title></rect><rect x="766.4" y="380.0422518434912" height="59.565051046623296" width="2" fill="black"><title>Electricity grid: 581.4300000000001</title></rect><rect x="0" y="372.0785243894311" height="0.008195662562457073" width="2" fill="black"><title>Wind: 0.08</title></rect><rect x="0" y="388.67988406376656" height="0.5450115604080565" width="2" fill="black"><title>Hydro: 5.32</title></rect><rect x="958" y="335.1213203223741" height="87.06457231736113" width="2" fill="black"><title>Industry: 849.8599999999999</title></rect><rect x="958" y="524.6255693166314" height="59.27410502565351" width="2" fill="black"><title>Heating and cooling - homes: 578.59</title></rect><rect x="958" y="600.4928383540579" height="17.71185125544048" width="2" fill="black"><title>Heating and cooling - commercial: 172.89</title></rect><rect x="958" y="652.5353370183373" height="11.415533491779115" width="2" fill="black"><title>Lighting &amp; appliances - homes: 111.43</title></rect><rect x="958" y="680.5440345218894" height="10.38595338236189" width="2" fill="black"><title>Lighting &amp; appliances - commercial: 101.38</title></rect><rect x="958" y="634.7978536212714" height="1.1443193852928744" width="2" fill="black"><title>Agriculture: 11.169999999999998</title></rect><rect x="958" y="707.5231519160245" height="34.40641589530708" width="2" fill="black"><title>Road transport: 335.84999999999997</title></rect><rect x="958" y="758.5227318231047" height="1.4772681768953362" width="2" fill="black"><title>Rail transport: 14.420000000000002</title></rect><rect x="574.8" y="505.7292020544344" height="1.514148658426734" width="2" fill="black"><title>Domestic aviation: 14.78</title></rect><rect x="574.8" y="523.8365147246342" height="2.3040056378903273" width="2" fill="black"><title>National navigation: 22.49</title></rect><rect x="574.8" y="500.37422552885835" height="19.319225575515816" width="2" fill="black"><title>International aviation: 188.58</title></rect><rect x="574.8" y="452.1118481912921" height="13.266728773089994" width="2" fill="black"><title>International shipping: 129.5</title></rect></g><g class="links" fill="none" stroke-opacity="0.5"><path d="M2,3.2762161093699773C96.8,3.2762161093699773,96.8,374.40844461461245,191.6,374.40844461461245" stroke="rgb(240, 112, 74)" style="stroke-width: 6.55243; mix-blend-mode: multiply;"><title>Coal reserves → Coal: 63.96</title></path><path d="M2,24.75245832167845C96.8,24.75245832167845,96.8,379.2915228151477,191.6,379.2915228151477" stroke="rgb(228, 86, 73)" style="stroke-width: 3.21372; mix-blend-mode: multiply;"><title>Coal imports → Coal: 31.37</title></path><path d="M2,568.0676741707574C96.8,568.0676741707574,96.8,513.7849198258453,191.6,513.7849198258453" stroke="rgb(137, 207, 165)" style="stroke-width: 11.0334; mix-blend-mode: multiply;"><title>Oil reserves → Oil: 107.7</title></path><path d="M2,484.2101256676601C96.8,484.2101256676601,96.8,468.70519012957783,191.6,468.70519012957783" stroke="rgb(169, 221, 162)" style="stroke-width: 79.126; mix-blend-mode: multiply;"><title>Oil imports → Oil: 772.37</title></path><path d="M2,351.2733020494295C96.8,351.2733020494295,96.8,351.6317194408524,191.6,351.6317194408524" stroke="rgb(254, 238, 163)" style="stroke-width: 8.42412; mix-blend-mode: multiply;"><title>Gas reserves → Natural Gas: 82.23</title></path><path d="M2,226.26432805818337C96.8,226.26432805818337,96.8,243.2159094613791,191.6,243.2159094613791" stroke="rgb(254, 221, 141)" style="stroke-width: 208.408; mix-blend-mode: multiply;"><title>Gas imports → Natural Gas: 2034.32</title></path><path d="M2,427.1493410666814C96.8,427.1493410666814,96.8,361.8534724641445,191.6,361.8534724641445" stroke="rgb(74, 108, 174)" style="stroke-width: 1.80919; mix-blend-mode: multiply;"><title>UK land based bioenergy → Bio-conversion: 17.66</title></path><path d="M2,407.73482021775857C96.8,407.73482021775857,96.8,359.0321156269947,191.6,359.0321156269947" stroke="rgb(158, 1, 66)" style="stroke-width: 3.83352; mix-blend-mode: multiply;"><title>Agricultural 'waste' → Bio-conversion: 37.42</title></path><path d="M2,542.432645436877C96.8,542.432645436877,96.8,364.8244001430605,191.6,364.8244001430605" stroke="rgb(105, 189, 169)" style="stroke-width: 4.13266; mix-blend-mode: multiply;"><title>Other waste → Bio-conversion: 40.34</title></path><path d="M2,545.2283908285189C192.6,545.2283908285189,192.6,528.0220644232904,383.2,528.0220644232904" stroke="rgb(105, 189, 169)" style="stroke-width: 1.45883; mix-blend-mode: multiply;"><title>Other waste → Solid: 14.24</title></path><path d="M193.6,376.01581893468784C288.4,376.01581893468784,288.4,522.4090600257799,383.2,522.4090600257799" stroke="rgb(209, 60, 75)" style="stroke-width: 9.76718; mix-blend-mode: multiply;"><title>Coal → Solid: 95.34</title></path><path d="M193.6,474.2224077208888C288.4,474.2224077208888,288.4,591.2178146812308,383.2,591.2178146812308" stroke="rgb(200, 233, 159)" style="stroke-width: 90.1605; mix-blend-mode: multiply;"><title>Oil → Liquid: 880.08</title></path><path d="M193.6,247.42796778960764C288.4,247.42796778960764,288.4,254.76691890560625,383.2,254.76691890560625" stroke="rgb(224, 243, 161)" style="stroke-width: 216.832; mix-blend-mode: multiply;"><title>Natural Gas → Gas: 2116.55</title></path><path d="M193.6,364.5513821339463C288.4,364.5513821339463,288.4,515.9790505165678,383.2,515.9790505165678" stroke="rgb(185, 31, 72)" style="stroke-width: 3.09284; mix-blend-mode: multiply;"><title>Bio-conversion → Solid: 30.19</title></path><path d="M193.6,366.494266390175C288.4,366.494266390175,288.4,545.7411075795907,383.2,545.7411075795907" stroke="rgb(185, 31, 72)" style="stroke-width: 1; mix-blend-mode: multiply;"><title>Bio-conversion → Liquid: 7.74</title></path><path d="M193.6,359.143269300499C288.4,359.143269300499,288.4,365.2106431403947,383.2,365.2106431403947" stroke="rgb(185, 31, 72)" style="stroke-width: 4.05583; mix-blend-mode: multiply;"><title>Bio-conversion → Gas: 39.59</title></path><path d="M193.6,362.08807330499695C575.8,362.08807330499695,575.8,507.1155155556756,958,507.1155155556756" stroke="rgb(185, 31, 72)" style="stroke-width: 1.83378; mix-blend-mode: multiply;"><title>Bio-conversion → Losses: 17.9</title></path><path d="M385.2,516.1137667199393C480,516.1137667199393,480,264.4975852289053,574.8,264.4975852289053" stroke="rgb(78, 164, 176)" style="stroke-width: 3.36227; mix-blend-mode: multiply;"><title>Solid → Thermal generation: 32.82</title></path><path d="M385.2,205.4003454602271C480,205.4003454602271,480,203.76721341167277,574.8,203.76721341167277" stroke="rgb(253, 198, 118)" style="stroke-width: 118.098; mix-blend-mode: multiply;"><title>Gas → Thermal generation: 1152.79</title></path><path d="M576.8,206.34013922739595C671.5999999999999,206.34013922739595,671.5999999999999,365.01309688652043,766.4,365.01309688652043" stroke="rgb(66, 136, 181)" style="stroke-width: 1.65347; mix-blend-mode: multiply;"><title>Thermal generation → District heating: 16.14</title></path><path d="M576.8,236.6727986002171C671.5999999999999,236.6727986002171,671.5999999999999,409.5481737553175,766.4,409.5481737553175" stroke="rgb(66, 136, 181)" style="stroke-width: 59.0118; mix-blend-mode: multiply;"><title>Thermal generation → Electricity grid: 576.03</title></path><path d="M576.8,175.11568932198992C767.4,175.11568932198992,767.4,469.17676909591955,958,469.17676909591955" stroke="rgb(66, 136, 181)" style="stroke-width: 60.7954; mix-blend-mode: multiply;"><title>Thermal generation → Losses: 593.44</title></path><path d="M2,372.08262222071227C384.2,372.08262222071227,384.2,439.05819349842506,766.4,439.05819349842506" stroke="rgb(94, 79, 162)" style="stroke-width: 1; mix-blend-mode: multiply;"><title>Wind → Electricity grid: 0.08</title></path><path d="M2,388.9523898439705C384.2,388.9523898439705,384.2,439.3347971099102,766.4,439.3347971099102" stroke="rgb(251, 248, 176)" style="stroke-width: 1; mix-blend-mode: multiply;"><title>Hydro → Electricity grid: 5.32</title></path><path d="M768.4,405.4585381366168C863.2,405.4585381366168,863.2,501.65156977102123,958,501.65156977102123" stroke="rgb(252, 172, 99)" style="stroke-width: 4.15418; mix-blend-mode: multiply;"><title>Electricity grid → Losses: 40.55</title></path><path d="M768.4,365.01309688652043C863.2,365.01309688652043,863.2,366.7422354042426,958,366.7422354042426" stroke="rgb(248, 142, 83)" style="stroke-width: 1.65347; mix-blend-mode: multiply;"><title>District heating → Industry: 16.14</title></path><path d="M768.4,410.6422947074149C863.2,410.6422947074149,863.2,527.7322376567391,958,527.7322376567391" stroke="rgb(252, 172, 99)" style="stroke-width: 6.21334; mix-blend-mode: multiply;"><title>Electricity grid → Heating and cooling - homes: 60.65</title></path><path d="M385.2,324.2441115926952C671.6,324.2441115926952,671.6,557.3692901695658,958,557.3692901695658" stroke="rgb(253, 198, 118)" style="stroke-width: 53.0608; mix-blend-mode: multiply;"><title>Gas → Heating and cooling - homes: 517.94</title></path><path d="M768.4,415.3578740543285C863.2,415.3578740543285,863.2,602.1017493608639,958,602.1017493608639" stroke="rgb(252, 172, 99)" style="stroke-width: 3.21782; mix-blend-mode: multiply;"><title>Electricity grid → Heating and cooling - commercial: 31.41</title></path><path d="M385.2,358.0215103863284C671.6,358.0215103863284,671.6,610.9576749885841,958,610.9576749885841" stroke="rgb(253, 198, 118)" style="stroke-width: 14.494; mix-blend-mode: multiply;"><title>Gas → Heating and cooling - commercial: 141.48</title></path><path d="M768.4,422.7211646378486C863.2,422.7211646378486,863.2,657.8317839493702,958,657.8317839493702" stroke="rgb(252, 172, 99)" style="stroke-width: 10.5929; mix-blend-mode: multiply;"><title>Electricity grid → Lighting &amp; appliances - homes: 103.4</title></path><path d="M385.2,365.89702988000624C671.6,365.89702988000624,671.6,663.5395506952598,958,663.5395506952598" stroke="rgb(253, 198, 118)" style="stroke-width: 1; mix-blend-mode: multiply;"><title>Gas → Lighting &amp; appliances - homes: 8.03</title></path><path d="M768.4,432.7470210963693C863.2,432.7470210963693,863.2,685.2734440493775,958,685.2734440493775" stroke="rgb(252, 172, 99)" style="stroke-width: 9.45882; mix-blend-mode: multiply;"><title>Electricity grid → Lighting &amp; appliances - commercial: 92.33</title></path><path d="M385.2,366.77191685855587C671.6,366.77191685855587,671.6,690.4664207405584,958,690.4664207405584" stroke="rgb(253, 198, 118)" style="stroke-width: 1; mix-blend-mode: multiply;"><title>Gas → Lighting &amp; appliances - commercial: 9.05</title></path><path d="M768.4,391.71185087470883C863.2,391.71185087470883,863.2,379.23857189645497,958,379.23857189645497" stroke="rgb(252, 172, 99)" style="stroke-width: 23.3392; mix-blend-mode: multiply;"><title>Electricity grid → Industry: 227.82</title></path><path d="M385.2,523.2270895953023C671.6,523.2270895953023,671.6,396.3403585198973,958,396.3403585198973" stroke="rgb(78, 164, 176)" style="stroke-width: 10.8644; mix-blend-mode: multiply;"><title>Solid → Industry: 106.05</title></path><path d="M385.2,591.9554243118579C671.6,591.9554243118579,671.6,411.9792193759285,958,411.9792193759285" stroke="rgb(241, 249, 171)" style="stroke-width: 20.4133; mix-blend-mode: multiply;"><title>Liquid → Industry: 199.26</title></path><path d="M385.2,279.84667080475793C671.6,279.84667080475793,671.6,350.51840913281086,958,350.51840913281086" stroke="rgb(253, 198, 118)" style="stroke-width: 30.7942; mix-blend-mode: multiply;"><title>Gas → Industry: 300.59</title></path><path d="M768.4,417.19575138397494C863.2,417.19575138397494,863.2,635.0268199441119,958,635.0268199441119" stroke="rgb(252, 172, 99)" style="stroke-width: 1; mix-blend-mode: multiply;"><title>Electricity grid → Agriculture: 4.47</title></path><path d="M385.2,528.7048655605312C671.6,528.7048655605312,671.6,635.5185596978636,958,635.5185596978636" stroke="rgb(78, 164, 176)" style="stroke-width: 1; mix-blend-mode: multiply;"><title>Solid → Agriculture: 0.89</title></path><path d="M385.2,602.3511100435128C671.6,602.3511100435128,671.6,635.7531605387159,958,635.7531605387159" stroke="rgb(241, 249, 171)" style="stroke-width: 1; mix-blend-mode: multiply;"><title>Liquid → Agriculture: 3.69</title></path><path d="M385.2,365.3771175361959C671.6,365.3771175361959,671.6,635.3643787959061,958,635.3643787959061" stroke="rgb(253, 198, 118)" style="stroke-width: 1; mix-blend-mode: multiply;"><title>Gas → Agriculture: 2.12</title></path><path d="M768.4,438.1853554355158C863.2,438.1853554355158,863.2,708.2320767276831,958,708.2320767276831" stroke="rgb(252, 172, 99)" style="stroke-width: 1.41785; mix-blend-mode: multiply;"><title>Electricity grid → Road transport: 13.84</title></path><path d="M385.2,619.0344056473559C671.6,619.0344056473559,671.6,725.4352846753364,958,725.4352846753364" stroke="rgb(241, 249, 171)" style="stroke-width: 32.9886; mix-blend-mode: multiply;"><title>Liquid → Road transport: 322.01</title></path><path d="M768.4,439.24976711082394C863.2,439.24976711082394,863.2,758.8782186867542,958,758.8782186867542" stroke="rgb(252, 172, 99)" style="stroke-width: 1; mix-blend-mode: multiply;"><title>Electricity grid → Rail transport: 6.94</title></path><path d="M385.2,635.9118360081493C671.6,635.9118360081493,671.6,759.616852775202,958,759.616852775202" stroke="rgb(241, 249, 171)" style="stroke-width: 1; mix-blend-mode: multiply;"><title>Liquid → Rail transport: 7.48</title></path><path d="M385.2,559.368445505432C480,559.368445505432,480,506.48627638364786,574.8,506.48627638364786" stroke="rgb(241, 249, 171)" style="stroke-width: 1.51415; mix-blend-mode: multiply;"><title>Liquid → Domestic aviation: 14.78</title></path><path d="M385.2,580.5967482291061C480,580.5967482291061,480,524.9885175435792,574.8,524.9885175435792" stroke="rgb(241, 249, 171)" style="stroke-width: 2.30401; mix-blend-mode: multiply;"><title>Liquid → National navigation: 22.49</title></path><path d="M385.2,569.7851326224032C480,569.7851326224032,480,510.03383831661637,574.8,510.03383831661637" stroke="rgb(241, 249, 171)" style="stroke-width: 19.3192; mix-blend-mode: multiply;"><title>Liquid → International aviation: 188.58</title></path><path d="M385.2,551.9780067896735C480,551.9780067896735,480,458.7452125778371,574.8,458.7452125778371" stroke="rgb(241, 249, 171)" style="stroke-width: 13.2667; mix-blend-mode: multiply;"><title>Liquid → International shipping: 129.5</title></path><path d="M385.2,296.4787435175854C671.6,296.4787435175854,671.6,504.9636419041022,958,504.9636419041022" stroke="rgb(253, 198, 118)" style="stroke-width: 2.46997; mix-blend-mode: multiply;"><title>Gas → Losses: 24.11</title></path></g><g><text x="6" y="3.2762161093700244" text-anchor="start"><tspan alignment-baseline="middle" style="font-family: Arial, sans-serif; font-size: 10px; fill: black; font-weight: bold;">Coal reserves</tspan></text><text x="197.6" y="376.01581893468796" text-anchor="start"><tspan alignment-baseline="middle" style="font-family: Arial, sans-serif; font-size: 10px; fill: black; font-weight: bold;">Coal</tspan></text><text x="6" y="24.75245832167845" text-anchor="start"><tspan alignment-baseline="middle" style="font-family: Arial, sans-serif; font-size: 10px; fill: black; font-weight: bold;">Coal imports</tspan></text><text x="6" y="568.0676741707575" text-anchor="start"><tspan alignment-baseline="middle" style="font-family: Arial, sans-serif; font-size: 10px; fill: black; font-weight: bold;">Oil reserves</tspan></text><text x="197.6" y="474.2224077208889" text-anchor="start"><tspan alignment-baseline="middle" style="font-family: Arial, sans-serif; font-size: 10px; fill: black; font-weight: bold;">Oil</tspan></text><text x="6" y="484.2101256676601" text-anchor="start"><tspan alignment-baseline="middle" style="font-family: Arial, sans-serif; font-size: 10px; fill: black; font-weight: bold;">Oil imports</tspan></text><text x="6" y="351.2733020494295" text-anchor="start"><tspan alignment-baseline="middle" style="font-family: Arial, sans-serif; font-size: 10px; fill: black; font-weight: bold;">Gas reserves</tspan></text><text x="197.6" y="247.42796778960775" text-anchor="start"><tspan alignment-baseline="middle" style="font-family: Arial, sans-serif; font-size: 10px; fill: black; font-weight: bold;">Natural Gas</tspan></text><text x="6" y="226.26432805818325" text-anchor="start"><tspan alignment-baseline="middle" style="font-family: Arial, sans-serif; font-size: 10px; fill: black; font-weight: bold;">Gas imports</tspan></text><text x="6" y="427.14934106668136" text-anchor="start"><tspan alignment-baseline="middle" style="font-family: Arial, sans-serif; font-size: 10px; fill: black; font-weight: bold;">UK land based bioenergy</tspan></text><text x="197.6" y="362.0030433059106" text-anchor="start"><tspan alignment-baseline="middle" style="font-family: Arial, sans-serif; font-size: 10px; fill: black; font-weight: bold;">Bio-conversion</tspan></text><text x="6" y="407.7348202177586" text-anchor="start"><tspan alignment-baseline="middle" style="font-family: Arial, sans-serif; font-size: 10px; fill: black; font-weight: bold;">Agricultural 'waste'</tspan></text><text x="6" y="543.1620594049417" text-anchor="start"><tspan alignment-baseline="middle" style="font-family: Arial, sans-serif; font-size: 10px; fill: black; font-weight: bold;">Other waste</tspan></text><text x="389.2" y="521.5920549140783" text-anchor="start"><tspan alignment-baseline="middle" style="font-family: Arial, sans-serif; font-size: 10px; fill: black; font-weight: bold;">Solid</tspan></text><text x="389.2" y="590.8213495047685" text-anchor="start"><tspan alignment-baseline="middle" style="font-family: Arial, sans-serif; font-size: 10px; fill: black; font-weight: bold;">Liquid</tspan></text><text x="389.2" y="256.79483316092137" text-anchor="start"><tspan alignment-baseline="middle" style="font-family: Arial, sans-serif; font-size: 10px; fill: black; font-weight: bold;">Gas</tspan></text><text x="954" y="473.4057309781833" text-anchor="end"><tspan alignment-baseline="middle" style="font-family: Arial, sans-serif; font-size: 10px; fill: black; font-weight: bold;">Losses</tspan></text><text x="570.8" y="205.4483486948111" text-anchor="end"><tspan alignment-baseline="middle" style="font-family: Arial, sans-serif; font-size: 10px; fill: black; font-weight: bold;">Thermal generation</tspan></text><text x="762.4" y="365.0130968865203" text-anchor="end"><tspan alignment-baseline="middle" style="font-family: Arial, sans-serif; font-size: 10px; fill: black; font-weight: bold;">District heating</tspan></text><text x="762.4" y="409.8247773668029" text-anchor="end"><tspan alignment-baseline="middle" style="font-family: Arial, sans-serif; font-size: 10px; fill: black; font-weight: bold;">Electricity grid</tspan></text><text x="6" y="372.0826222207123" text-anchor="start"><tspan alignment-baseline="middle" style="font-family: Arial, sans-serif; font-size: 10px; fill: black; font-weight: bold;">Wind</tspan></text><text x="6" y="388.9523898439706" text-anchor="start"><tspan alignment-baseline="middle" style="font-family: Arial, sans-serif; font-size: 10px; fill: black; font-weight: bold;">Hydro</tspan></text><text x="954" y="378.6536064810547" text-anchor="end"><tspan alignment-baseline="middle" style="font-family: Arial, sans-serif; font-size: 10px; fill: black; font-weight: bold;">Industry</tspan></text><text x="954" y="554.2626218294581" text-anchor="end"><tspan alignment-baseline="middle" style="font-family: Arial, sans-serif; font-size: 10px; fill: black; font-weight: bold;">Heating and cooling - homes</tspan></text><text x="954" y="609.3487639817781" text-anchor="end"><tspan alignment-baseline="middle" style="font-family: Arial, sans-serif; font-size: 10px; fill: black; font-weight: bold;">Heating and cooling - commercial</tspan></text><text x="954" y="658.2431037642268" text-anchor="end"><tspan alignment-baseline="middle" style="font-family: Arial, sans-serif; font-size: 10px; fill: black; font-weight: bold;">Lighting &amp; appliances - homes</tspan></text><text x="954" y="685.7370112130704" text-anchor="end"><tspan alignment-baseline="middle" style="font-family: Arial, sans-serif; font-size: 10px; fill: black; font-weight: bold;">Lighting &amp; appliances - commercial</tspan></text><text x="954" y="635.3700133139179" text-anchor="end"><tspan alignment-baseline="middle" style="font-family: Arial, sans-serif; font-size: 10px; fill: black; font-weight: bold;">Agriculture</tspan></text><text x="954" y="724.726359863678" text-anchor="end"><tspan alignment-baseline="middle" style="font-family: Arial, sans-serif; font-size: 10px; fill: black; font-weight: bold;">Road transport</tspan></text><text x="954" y="759.2613659115523" text-anchor="end"><tspan alignment-baseline="middle" style="font-family: Arial, sans-serif; font-size: 10px; fill: black; font-weight: bold;">Rail transport</tspan></text><text x="570.8" y="506.48627638364775" text-anchor="end"><tspan alignment-baseline="middle" style="font-family: Arial, sans-serif; font-size: 10px; fill: black; font-weight: bold;">Domestic aviation</tspan></text><text x="570.8" y="524.9885175435793" text-anchor="end"><tspan alignment-baseline="middle" style="font-family: Arial, sans-serif; font-size: 10px; fill: black; font-weight: bold;">National navigation</tspan></text><text x="570.8" y="510.03383831661625" text-anchor="end"><tspan alignment-baseline="middle" style="font-family: Arial, sans-serif; font-size: 10px; fill: black; font-weight: bold;">International aviation</tspan></text><text x="570.8" y="458.7452125778371" text-anchor="end"><tspan alignment-baseline="middle" style="font-family: Arial, sans-serif; font-size: 10px; fill: black; font-weight: bold;">International shipping</tspan></text></g></g></svg>